<?xml version="1.0" standalone="no"?>
<!DOCTYPE svg PUBLIC "-//W3C//DTD SVG 20010904//EN"
 "http://www.w3.org/TR/2001/REC-SVG-20010904/DTD/svg10.dtd">
<svg version="1.0" xmlns="http://www.w3.org/2000/svg"
 width="1080.000000pt" height="1080.000000pt" viewBox="0 0 1080.000000 1080.000000"
 preserveAspectRatio="xMidYMid meet">
<metadata>
Created by potrace 1.11, written by Peter Selinger 2001-2013
</metadata>
<g transform="translate(0.000000,1080.000000) scale(0.100000,-0.100000)"
fill="#000000" stroke="none">
<path d="M416 10410 l-28 -5 1 -2210 c0 -1215 0 -2239 1 -2275 l0 -65 2275 0
c1251 0 2276 2 2276 5 1 3 2 1028 3 2278 l1 2272 -55 0 c-412 4 -4454 4 -4474
0z"/>
<path d="M5862 10405 c-8 -12 -9 -4544 -2 -4546 3 -1 1028 -2 2278 -3 2014 -1
2272 1 2273 14 0 8 1 1033 2 2277 l2 2263 -60 0 c-33 1 -1056 2 -2273 3 -1467
1 -2216 -1 -2220 -8z"/>
<path d="M390 4890 c-4 -392 -1 -4493 3 -4496 10 -11 4547 -9 4548 1 4 33 3
4545 -1 4546 -3 1 -1028 2 -2277 3 l-2273 1 0 -55z"/>
<path d="M5862 4935 c-4 -5 -7 -1030 -7 -2277 l0 -2268 55 0 c419 -4 4494 0
4497 4 8 7 6 4536 -2 4544 -11 12 -4536 8 -4543 -3z"/>
</g>
</svg>
